<svg version="1.1" viewBox="0 0 24 24" xmlns="http://www.w3.org/2000/svg">
	<defs>
		<linearGradient id="linearGradient843" x1=".8499" x2="24.85" y1="-4.051" y2="19.95" gradientTransform="translate(-.8499 4.051)" gradientUnits="userSpaceOnUse">
			<stop stop-color="#001c35" offset="0"/>
			<stop stop-color="#00325b" offset="1"/>
		</linearGradient>
	</defs>
	<rect x="2.496e-9" width="24" height="24" ry="0" fill="url(#linearGradient843)" style="paint-order:normal"/>
	<path d="m7.625 2.2422c-0.90916 0-1.6406 0.73342-1.6406 1.6426v16.23c0 0.90916 0.73146 1.6426 1.6406 1.6426h8.75c0.90916 0 1.6406-0.73342 1.6406-1.6426v-16.23c0-0.90916-0.73146-1.6426-1.6406-1.6426h-8.75zm5.2207 1.0957c0.75373 0 1.4043 0.091554 1.9512 0.27539 0.55151 0.17924 1.0068 0.43472 1.3652 0.76562 0.35848 0.33091 0.62614 0.73491 0.80078 1.2129 0.17464 0.47338 0.26172 1.0023 0.26172 1.5859 0 0.31252-0.021133 0.63267-0.0625 0.95898-0.036766 0.32631-0.098223 0.64324-0.18555 0.95117-0.087322 0.30793-0.20323 0.59924-0.3457 0.875-0.14247 0.27116-0.31662 0.50998-0.52344 0.7168-0.20682 0.20681-0.44885 0.37074-0.72461 0.49023-0.27116 0.1149-0.58361 0.17188-0.9375 0.17188-0.18843 0-0.36258-0.021133-0.52344-0.0625-0.16086-0.04596-0.30364-0.11063-0.42773-0.19336-0.12409-0.08273-0.22908-0.18772-0.31641-0.31641-0.082726-0.13328-0.1397-0.28503-0.17188-0.45508-0.18384 0.18384-0.36442 0.34133-0.53906 0.47461-0.17005 0.12869-0.3365 0.23563-0.50195 0.31836-0.16545 0.082727-0.32938 0.14292-0.49024 0.17969-0.15626 0.036767-0.30927 0.054688-0.46094 0.054688-0.19762 0-0.37372-0.017921-0.52539-0.054688-0.15166-0.04136-0.28676-0.10029-0.40625-0.17383-0.1149-0.07813-0.21415-0.17095-0.29687-0.28125-0.082727-0.1103-0.15188-0.23517-0.20703-0.37305-0.055153-0.13788-0.09421-0.28962-0.11719-0.45508-0.02298-0.16545-0.033203-0.34408-0.033203-0.53711 0-0.19762 0.014702-0.42301 0.046875-0.67578 0.032173-0.25737 0.086623-0.52181 0.16016-0.79297 0.073535-0.27116 0.17405-0.5356 0.30273-0.79297 0.12869-0.26197 0.28618-0.49309 0.47461-0.69531 0.19303-0.20682 0.42163-0.37396 0.68359-0.49805 0.26197-0.12869 0.56672-0.19141 0.91602-0.19141 0.14707 0 0.28859 0.01792 0.42188 0.054688 0.13788 0.032171 0.26849 0.084668 0.39258 0.1582 0.12409 0.073535 0.24252 0.16509 0.35742 0.27539 0.1149 0.1103 0.23207 0.24091 0.35156 0.39258l0.11719-0.60547c0.018386-0.064343 0.06066-0.11236 0.125-0.14453 0.06434-0.032171 0.18473-0.048828 0.35938-0.048828 0.082727-1e-7 0.14993 0.0044805 0.20508 0.013672 0.059747 0.0091914 0.1065 0.022632 0.13867 0.041016 0.032173 0.013787 0.053306 0.031707 0.0625 0.054688 0.013786 0.022981 0.015046 0.051814 0.005859 0.083984l-0.61328 3.1699c-0.073535 0.39985-0.055614 0.6976 0.054687 0.89062 0.1103 0.18843 0.32098 0.28125 0.62891 0.28125 0.18843 0 0.3581-0.0448 0.50976-0.13672 0.15167-0.096514 0.28549-0.22586 0.40039-0.38672 0.1149-0.16086 0.21093-0.34718 0.28906-0.55859 0.078131-0.21601 0.1428-0.44139 0.19336-0.67578 0.050553-0.23899 0.086393-0.48229 0.10938-0.73047 0.02298-0.24818 0.035156-0.487 0.035156-0.7168 0-0.39985-0.055713-0.77824-0.16602-1.1367-0.10572-0.36308-0.28881-0.68001-0.55078-0.95117-0.26197-0.27576-0.61348-0.49539-1.0547-0.65625-0.43661-0.16545-0.98662-0.24805-1.6484-0.24805-0.54232 0-1.0244 0.060193-1.4473 0.17969-0.42282 0.11949-0.79547 0.28342-1.1172 0.49023-0.32172 0.20222-0.59833 0.43656-0.82812 0.70312-0.2298 0.26656-0.42508 0.55018-0.58594 0.85352-0.15626 0.29874-0.28239 0.60671-0.37891 0.92383-0.096514 0.31252-0.17015 0.61602-0.2207 0.91016-0.050553 0.28954-0.08513 0.56294-0.10352 0.82031-0.013787 0.25737-0.019531 0.47701-0.019531 0.65625 0 0.51015 0.056977 0.97561 0.17188 1.3984 0.11949 0.42283 0.32374 0.78778 0.61328 1.0957s0.67885 0.54675 1.166 0.7168c0.48717 0.17005 1.0999 0.25586 1.8398 0.25586 0.3355 0 0.639-0.021134 0.91016-0.0625 0.27116-0.036767 0.5055-0.077087 0.70312-0.12305 0.20222-0.041367 0.36614-0.08364 0.49024-0.125 0.12409-0.036767 0.20795-0.054688 0.25391-0.054688 0.027573 0 0.051926 0.007698 0.070312 0.021485 0.02298 0.018386 0.037682 0.042052 0.046875 0.074218 0.013787 0.036767 0.022744 0.080304 0.027344 0.13086 0.0046 0.055153 0.007811 0.12304 0.007813 0.20117 0 0.06434-0.003213 0.11684-0.007813 0.1582 0 0.04136-0.004479 0.0772-0.013672 0.10938-0.009193 0.036766-0.022636 0.070083-0.041015 0.097656-0.013788 0.027573-0.034929 0.053192-0.0625 0.076172-0.027576 0.02298-0.10695 0.057558-0.24024 0.10352-0.12869 0.045962-0.30605 0.090761-0.53125 0.13672-0.2206 0.04596-0.48056 0.085017-0.7793 0.11719-0.29874 0.032173-0.62785 0.048828-0.98633 0.048828-0.85944 0-1.5861-0.10051-2.1836-0.30274-0.59288-0.20221-1.0782-0.49227-1.4551-0.86914-0.37227-0.37687-0.64119-0.82889-0.80664-1.3574-0.16545-0.52853-0.24805-1.1208-0.24805-1.7734-1e-7 -0.23899 0.010224-0.51239 0.033203-0.82031 0.027575-0.31252 0.075592-0.6429 0.14453-0.99219 0.073535-0.35389 0.176-0.71114 0.30469-1.0742 0.12869-0.36767 0.29387-0.72688 0.49609-1.0762 0.20682-0.34929 0.4546-0.6784 0.74414-0.98633 0.29414-0.31252 0.63991-0.5827 1.0352-0.8125 0.39985-0.23439 0.85313-0.41945 1.3633-0.55273 0.51475-0.13328 1.0961-0.19922 1.7441-0.19922zm-0.78516 3.377c-0.19303 0-0.36718 0.04997-0.52344 0.14648-0.15626 0.091919-0.29135 0.21357-0.40625 0.36523-0.1149 0.14707-0.21415 0.31352-0.29688 0.50195-0.07813 0.18843-0.1428 0.38245-0.19336 0.58008-0.050553 0.19762-0.088347 0.38969-0.11133 0.57812-0.018387 0.18384-0.027344 0.34776-0.027344 0.49023 0 0.3401 0.060194 0.60132 0.17969 0.78516 0.12409 0.18384 0.33155 0.27539 0.62109 0.27539 0.1103 0 0.22299-0.017919 0.33789-0.054688 0.1149-0.041366 0.23655-0.10156 0.36523-0.17969 0.12869-0.082727 0.26378-0.18772 0.40625-0.31641 0.14707-0.13328 0.30778-0.28951 0.48242-0.46875l0.33203-1.793c-0.17464-0.29414-0.35522-0.51952-0.53906-0.67578s-0.39256-0.23438-0.62695-0.23438zm-4.2266 8.834h8.7578c0.1313 0 0.23633 0.10503 0.23633 0.23633v1.2617c0 0.1313-0.10503 0.23828-0.23633 0.23828h-8.7578c-0.1313 0-0.23633-0.10698-0.23633-0.23828v-1.2617c0-0.1313 0.10503-0.23633 0.23633-0.23633zm0 2.9082h8.7578c0.1313 0 0.23633 0.10698 0.23633 0.23828v1.2617c0 0.1313-0.10503 0.23633-0.23633 0.23633h-8.7578c-0.1313 0-0.23633-0.10503-0.23633-0.23633v-1.2617c0-0.1313 0.10503-0.23828 0.23633-0.23828z" fill="#fff" stroke-width="1.7139" style="paint-order:normal"/>
</svg>
