<svg version="1.1" viewBox="0 0 24 24" xmlns="http://www.w3.org/2000/svg">
	<defs>
		<linearGradient id="linearGradient843" x1=".8499" x2="24.85" y1="-4.051" y2="19.95" gradientTransform="translate(-.8499 4.051)" gradientUnits="userSpaceOnUse">
			<stop stop-color="#001c35" offset="0"/>
			<stop stop-color="#00325b" offset="1"/>
		</linearGradient>
	</defs>
	<rect x="2.496e-9" width="24" height="24" ry="0" fill="url(#linearGradient843)" style="paint-order:normal"/>
	<path d="m4.2441 6.0449c-0.11299 0-0.22368 0.01154-0.33008 0.033203 0.1186 0.021372 0.2374 0.04801 0.34766 0.10742l8.043 4.334 8.0605-4.334c0.10974-0.059012 0.22772-0.086001 0.3457-0.10742-0.1064-0.021663-0.21709-0.033203-0.33008-0.033203h-16.137zm-1.6211 1.5312c-0.0021197 0.034197-0.0097657 0.066813-0.0097657 0.10156v8.6973c0 0.90389 0.72697 1.6309 1.6309 1.6309h16.137c0.90389 0 1.6328-0.72697 1.6328-1.6309v-8.6973c0-0.03475-0.007646-0.067365-0.009766-0.10156-0.091028 0.2087-0.23578 0.39727-0.45898 0.51758l-9.2461 4.9512-9.2187-4.9512c-0.22321-0.12031-0.366-0.30888-0.45703-0.51758z" fill="#fff" stroke-width="1.704" style="paint-order:normal"/>
</svg>
