<svg version="1.1" viewBox="0 0 24 24" xmlns="http://www.w3.org/2000/svg">
	<defs>
		<linearGradient id="linearGradient843" x1=".8499" x2="24.85" y1="-4.051" y2="19.95" gradientTransform="translate(-.8499 4.051)" gradientUnits="userSpaceOnUse">
			<stop stop-color="#001c35" offset="0"/>
			<stop stop-color="#00325b" offset="1"/>
		</linearGradient>
	</defs>
	<rect x="2.496e-9" width="24" height="24" ry="0" fill="url(#linearGradient843)" style="paint-order:normal"/>
	<g transform="translate(-.36595 .81063)">
		<rect transform="rotate(90)" x="3.0144" y="-12.674" width="16.35" height="10.08" ry="1.375" fill="#fff" stroke-width="1.436" style="paint-order:normal"/>
		<g transform="translate(-4.3601 1.4005)" fill="#002e54" stroke="#002b4e" stroke-linejoin="round">
			<path d="m8.3078 15.463 1.6305-11.348 1.5998 10.924 2.1747-2.516 1.9686 2.9305z" stroke-width="1.0363px"/>
			<ellipse cx="14.103" cy="6.2162" rx="1.1817" ry="1.1417" stroke-linecap="square" stroke-width="1.3465"/>
		</g>
		<g transform="translate(0 -.5129)" fill="#fff" stroke-width=".4114">
			<rect x="14.345" y="13.834" width="7.7928" height="1.736" ry=".237" style="paint-order:normal"/>
			<rect x="14.345" y="16.834" width="7.7928" height="1.736" ry=".237" style="paint-order:normal"/>
			<rect x="14.345" y="7.8345" width="7.7928" height="1.736" ry=".237" style="paint-order:normal"/>
			<rect x="14.345" y="10.834" width="7.7928" height="1.736" ry=".237" style="paint-order:normal"/>
			<rect x="14.345" y="4.8348" width="7.7928" height="1.736" ry=".237" style="paint-order:normal"/>
		</g>
	</g>
</svg>
